<?xml version="1.0" encoding="UTF-8"?>
<svg width="1016px" height="898px" viewBox="0 0 1016 898" version="1.1" xmlns="http://www.w3.org/2000/svg" xmlns:xlink="http://www.w3.org/1999/xlink">
    <title>Characters in moshion / Woman in moshion/ Woman with UI / 1</title>
    <g id="Characters-in-moshion-/-Woman-in-moshion/-Woman-with-UI-/-1" stroke="none" stroke-width="1" fill="none" fill-rule="evenodd">
        <g id="Group-2" transform="translate(0.000000, 116.999954)">
            <g id="Man" transform="translate(666.000000, 0.000000)" fill-rule="nonzero">
                <path d="M345.72101,652.000046 L271.032903,652.000046 C269.284108,652.000046 267.753913,650.736004 267.753913,649.219154 L267.753913,648.207921 C267.753913,646.691071 269.211242,645.427029 271.032903,645.427029 L345.72101,645.427029 C347.469805,645.427029 349,646.691071 349,648.207921 L349,649.219154 C349,650.736004 347.542671,652.000046 345.72101,652.000046 Z M160.997051,645.427029 L42.2397808,645.427029 C40.4246923,645.427029 38.9532724,646.898449 38.9532724,648.713538 C38.9532724,650.528626 40.4246923,652.000046 42.2397808,652.000046 L160.997051,652.000046 C162.81214,652.000046 164.283559,650.528626 164.283559,648.713538 C164.283559,646.898449 162.81214,645.427029 160.997051,645.427029 Z" id="Base" fill="#DE3190"></path>
                <path d="M106.743677,599.571015 L161.366564,600.831977 L161.366688,645.446667 C161.248025,645.43369 161.127464,645.427029 161.005347,645.427029 L42.7480752,645.427065 C42.6697196,645.027129 42.6299902,644.523151 42.6413812,643.87056 C42.7231385,643.360678 42.7333121,642.776499 42.8891966,642.194869 C43.8245037,638.705089 44.9580302,636.387492 48.273406,634.3272 C51.5887817,632.266908 54.9731979,630.426958 58.4995099,628.808624 C71.5055674,622.681282 75.9497517,622.759034 84.5014514,617.13812 C88.0404803,614.789562 91.2944459,612.070794 94.3336601,609.129135 C96.3598029,607.168029 100.496475,603.981989 106.743677,599.571015 L106.743677,599.571015 Z M326.855453,598.463378 L345.99825,645.436999 C345.909305,645.430399 345.819597,645.427029 345.729306,645.427029 L345.729306,645.427029 L271.289888,645.426061 C275.688372,617.861308 277.887614,604.078932 277.887614,604.078932 L326.855453,598.463378 Z" id="Shoes" fill="#474961"></path>
                <path d="M191.929585,188.948707 C200.834919,185.595667 217.828916,182.051392 229.955456,185.924506 C244.136886,190.453934 252.891462,202.836142 252.891462,202.836142 C252.891462,202.836142 254.969611,200.666491 276.66728,261.387789 C291.132392,301.868655 305.17026,356.723331 318.780883,425.951818 C320.069038,433.613925 327.433356,476.427684 340.873835,554.393097 C340.889039,554.480291 340.902904,554.567712 340.915605,554.655306 C341.708178,560.120988 337.919875,565.194305 332.454196,565.986894 L332.454196,565.986894 L261.650442,576.252751 C256.631246,576.980004 251.862473,573.834691 250.555271,568.934441 C241.474703,534.905137 236.557134,516.271582 235.802566,513.033776 C234.142669,506.422136 232.509873,498.935341 230.819996,490.359369 L230.819996,490.359369 L217.521692,425.963077 C217.39169,425.338859 217.139605,423.313357 216.765437,419.886568 C210.563097,397.098778 205.259635,377.613529 200.855054,361.430821 C197.317787,375.0492 193.48866,389.655537 189.368863,405.24655 C187.378525,492.64753 185.889316,542.350013 184.901238,554.353999 C184.76027,556.066596 184.336226,562.021063 183.629108,572.217399 C183.253129,577.649622 178.599867,581.782421 173.161238,581.514632 L99.9658098,577.913814 C94.8437098,577.661823 90.742446,573.575968 90.4711784,568.454853 C87.193677,506.388623 89.5223045,447.962917 97.4570609,393.177732 C109.93396,307.03152 128.80029,271.830762 140.051718,238.694486 C140.176956,238.299596 149.104628,224.128347 166.834735,196.180738 C172.993976,196.217773 178.574672,196.398086 183.576822,196.721678 C186.071025,193.900814 188.861126,191.293704 191.929585,188.948707 Z" id="Legs" fill="#FFCB3D"></path>
                <path d="M171.148988,251.203179 L184.951082,302.005211 L184.951082,302.005211 C184.951082,302.005211 190.284854,321.601826 200.952399,360.795057 C197.39014,374.596907 193.528246,389.414485 189.368501,405.246575 C187.325642,492.373129 185.810174,541.938399 184.822095,553.942385 C184.249596,560.897576 183.79968,566.962239 183.472347,572.136375 C183.125721,577.599089 178.451755,581.768151 172.985107,581.490378 L99.7465274,577.772592 C94.6211178,577.512626 90.5245374,573.414984 90.2658609,568.289509 C87.1260121,506.326515 89.5229583,447.955931 97.4566994,393.177757 C109.933598,307.031545 128.576025,271.675204 139.827453,238.538929 C139.92839,238.220663 155.998792,226.020929 172.696838,215.479347 C168.577191,226.70195 167.876152,239.156697 171.148988,251.203179 Z" id="Shadow-Legs" fill="#8C2A00" opacity="0.2"></path>
                <path d="M207.852844,68.4482704 L208.03226,70.9941365 C219.828875,69.5590021 228.516641,68.8272811 234.095558,68.7989735 L234.68909,68.7986642 C237.595665,68.8109386 239.585967,69.0305307 240.659995,69.4574405 C269.655704,80.9827953 274.483997,130.935739 274.341604,146.13087 C274.303385,150.209267 267.794533,153.865049 254.815048,157.098215 C256.224121,170.904582 257.055345,178.704694 257.533818,182.757283 L257.534294,182.830533 C257.537335,183.038583 257.557794,183.674266 257.689524,184.537008 C257.860796,185.83663 240.881715,191.893755 221.008814,198.519935 L219.6014,198.988556 C216.777703,199.927469 213.903016,200.875761 211.017452,201.821644 L207.407735,203.001892 C184.306437,210.53654 161.578797,217.602816 159.763416,218.166652 L159.64685,218.202843 C159.572241,218.137624 159.503873,218.143592 159.503873,218.143592 C159.503873,218.143592 158.105312,217.907027 156.377108,217.053645 C155.519247,216.698142 154.648904,216.200263 153.759836,215.488821 C147.1758,210.325004 146.114472,197.434034 145.976586,194.289831 C145.889206,193.293201 145.820551,192.510135 145.820551,192.510135 C145.548866,187.811555 144.886074,178.290173 143.57445,160.515217 C138.881292,162.53963 133.763431,164.599912 128.22086,166.694855 L128.48494,97.1965741 C128.511511,89.6894413 133.195608,82.9879343 140.236171,80.3825131 C149.390964,76.9950223 158.076161,76.0247287 166.291763,77.4716322 C167.891476,76.8789005 169.480401,76.3779796 171.024263,75.9546929 L170.750434,71.0079646 C170.690251,69.9164273 171.51764,68.978807 172.608184,68.902711 L205.717886,66.5923806 C206.819586,66.5161004 207.775054,67.3466754 207.852844,68.4482704 Z" id="T-shirt" fill="#DE3190"></path>
                <path d="M322.617293,567.275961 L326.855453,598.463378 L277.887614,604.078932 L271.068293,574.732961 L322.617293,567.275961 Z M108.870293,578.162961 L161.725293,580.742961 L161.176293,601.155961 L148.210293,600.857961 L106.744293,599.570902 L108.870293,578.162961 Z M265.062042,153.512738 C265.211024,181.803301 263.105911,198.078697 258.746679,202.340729 C248.86398,212.003068 197.432526,235.90945 145.963568,242.403711 C134.455267,247.510509 115.423536,251.241244 88.8689627,253.595288 C81.299612,248.762927 77.240098,240.312445 76.6904207,228.243843 L95.2975389,221.830762 C94.6389169,221.603853 94.2662184,221.428698 94.1925362,221.39308 L94.1789433,221.386434 C90.30687,212.520926 137.883789,204.646865 146.456159,202.615892 L146.623,202.574967 L147.151485,202.109491 C147.483368,202.109491 147.676201,202.126657 147.741892,202.16035 L208.211775,174.837291 L209.476395,163.786476 C236.313454,160.893757 254.842003,157.469177 265.062042,153.512738 Z M85.9485719,36.5647444 L86.000035,37.0983108 L92.7516027,113.586975 L128.479,96.3619672 L128.476378,96.6539795 L128.37075,166.033474 C129.790806,165.497672 131.18257,164.96408 132.546042,164.432697 C107.848465,176.156046 66.7510651,185.360053 55.8974443,172.683512 C41.9168063,156.354755 40.076216,111.894183 50.3756736,39.3017954 C27.8944369,34.3108521 12.3219459,28.8856492 3.65820069,23.0261866 C1.31320622,21.4402204 -0.0639823109,18.7728192 0.00228765406,15.9452485 C0.109911636,11.353207 3.92474636,7.71775134 8.52295914,7.82524602 C18.3923072,8.05593408 26.6409165,8.17469715 33.268787,8.18153524 L34.7695251,8.18112642 C42.1293629,8.16914817 47.3314124,8.00815736 50.3756736,7.69815399 C50.5230722,7.6831441 50.6705719,7.66914231 50.8181624,7.65614961 C68.4959553,6.0999368 84.1107318,19.003764 85.9485719,36.5647444 Z M157.244995,6.58053978 C165.962387,-2.41565356 179.578837,0.464204776 182.004641,1.08193589 C182.286893,1.18427814 182.576763,1.21456954 182.859015,1.31691178 C185.464138,2.31761569 187.977643,2.79881796 190.506381,3.13591853 C191.665857,3.25708412 192.501299,4.36424304 192.379433,5.51705661 L192.379433,5.51705661 L190.357112,23.9545009 C191.055017,23.5903515 202.044151,19.2018584 205.107146,21.4159587 C207.634247,23.269142 208.708148,34.8416343 205.197439,39.7180403 L205.196534,66.7163065 L176.97357,68.6470917 L177.367877,62.760922 C176.782123,62.9105712 176.286394,63.0359267 175.865703,63.1411496 L175.529516,63.2249248 C173.82721,63.6474268 173.547867,63.6889514 173.342525,63.7241112 L173.304561,63.7307205 C173.266806,63.7374381 173.228688,63.7447552 173.181315,63.7551409 C168.494011,64.430865 164.596012,63.8778294 163.886572,63.6579992 C161.3006,63.1692241 158.775342,60.7199304 156.699902,56.7878603 C153.884337,51.5400515 151.720541,43.5921748 151.093571,34.2751144 C150.940801,32.9479077 151.005433,31.6434196 151.070065,30.3389315 L151.070065,30.3389315 L152.14357,17.4115382 C152.375767,14.5219315 153.332638,11.7080532 155.056181,9.26567962 C155.757786,8.17344885 156.43654,7.29737061 157.244995,6.58053978 Z" id="Skin" fill="#DB9E75"></path>
                <path d="M165.737525,77.3357133 L165.372539,77.4765467 C158.970422,79.9777909 152.494648,83.9858164 148.133816,90.4075884 C146.854124,92.3126274 145.245363,95.1789206 144.152914,99.2195951 C143.997741,99.8070041 143.836327,100.323225 143.681154,100.910634 C143.308683,102.162608 142.507854,104.814902 141.862486,107.668821 C141.291066,110.361141 140.990476,115.040973 140.975197,121.412393 L140.975197,121.412393 L140.975295,122.489909 C140.977582,123.400806 140.985389,124.344017 140.998753,125.318749 L140.998753,125.318749 L141.017477,125.532313 L141.18657,129.032455 L141.273759,130.191207 C142.18452,142.297914 142.929846,152.285089 143.53555,160.496369 C138.874379,162.50972 133.788207,164.558829 128.277612,166.641686 L128.493002,97.1594601 C128.515715,89.6666932 133.177903,82.9718342 140.197524,80.3513417 C149.154628,77.0074298 157.667961,76.0022204 165.737525,77.3357133 Z" id="Shadow-T-shirt" fill="#444444" opacity="0.176985679"></path>
                <polygon id="Shadow" fill="#482D1F" transform="translate(182.656129, 64.505138) rotate(6.000000) translate(-182.656129, -64.505138) " points="177.243531 63.4919822 188.068727 59.5439399 177.463712 69.4663369"></polygon>
                <path d="M157.41256,6.40217107 C163.807538,-0.750097726 175.581442,-0.538810338 180.883106,0.602127136 C181.527698,0.74284421 183.816192,1.27531074 187.126848,1.84187034 C188.923303,2.17650757 190.372654,2.32851638 191.234648,2.49203477 C201.986609,4.05837907 206.399293,3.20516909 211.529693,6.6677265 C212.490922,7.28032444 214.672783,8.82517451 216.435292,11.5689457 C221.406182,19.3283783 219.054372,28.440048 218.402603,31.1499439 C216.229893,39.2568305 211.13691,43.3456808 209.466677,45.2907522 C206.118596,49.253208 201.770488,45.2907494 201.770488,45.2907494 C201.770488,45.2907494 200.65478,44.3053507 199.01786,42.7296901 L199.086496,42.7228802 C200.07427,42.3878069 202.965126,41.3749867 204.894537,38.360419 C206.823949,35.3458512 207.490731,31.102179 205.449675,27.5249623 C203.47347,24.0276591 199.315849,21.7638066 195.715554,22.5559964 C193.690388,23.0016032 192.226028,24.3833711 192.06586,24.5127965 C189.850279,26.766231 189.141277,29.3239005 189.141277,29.3239005 L189.141277,29.3239005 L188.772525,31.0793298 C188.3727,30.4834515 188.004464,29.8939003 187.676591,29.3165071 C183.102642,23.3533926 178.536311,17.317965 173.969979,11.2825374 C170.987496,11.773964 166.265791,12.08298 161.02506,10.3635377 C159.186604,9.73204756 157.626483,8.54485389 156.245682,7.7420271 C156.661336,7.27383753 157.069374,6.87796108 157.41256,6.40217107 Z" id="Hair" fill="#482D1F"></path>
                <path d="M113.713954,239.555502 C114.288006,239.364747 114.907124,239.674775 115.096794,240.247968 C115.286463,240.821162 114.974859,241.440464 114.400807,241.631219 C113.763391,241.84303 113.149826,242.048915 112.540502,242.255717 L111.931866,242.463077 C108.989931,243.469246 105.994334,244.550107 100.73062,246.478236 C95.2687753,248.478942 92.2381032,249.571414 89.1768078,250.61433 L88.5634111,250.822507 C88.0506911,250.995862 87.5325616,251.16943 86.9976254,251.347186 C86.4235733,251.537941 85.8044547,251.227914 85.6147853,250.65472 C85.4251158,250.081527 85.7367196,249.462224 86.3107717,249.271469 C90.2415083,247.965303 93.2651858,246.88448 99.9809591,244.424452 C104.896619,242.623817 107.84303,241.558852 110.614839,240.603579 L111.228652,240.392847 C112.045183,240.113601 112.858056,239.839913 113.713954,239.555502 Z M103.875328,229.941354 C104.436583,229.715594 105.073749,229.986817 105.298479,230.547148 C105.523208,231.107479 105.250401,231.744731 104.689146,231.970491 C104.286523,232.132443 103.893699,232.289136 103.504439,232.442928 L102.922442,232.671735 C100.114838,233.769971 97.3306564,234.777718 92.1935393,236.593695 C86.0226166,238.775124 83.2701509,239.782154 79.7855024,241.183825 C79.2242477,241.409585 78.5870815,241.138362 78.3623518,240.578032 C78.1376221,240.017701 78.4104296,239.380448 78.9716844,239.154688 C79.5756192,238.91176 80.1575052,238.680666 80.7383887,238.453444 L81.6115928,238.114523 C84.14721,237.13806 86.8616001,236.159602 91.4672913,234.531485 C96.2277174,232.848668 98.9538128,231.864739 101.551048,230.859383 L102.126864,230.635326 C102.702109,230.41033 103.27796,230.181641 103.875328,229.941354 Z" id="Fingers" fill="#482D1F" transform="translate(96.717990, 240.632629) rotate(8.000000) translate(-96.717990, -240.632629) "></path>
                <path d="M155.435444,30.9321473 C155.372004,30.0349873 154.624768,29.2390118 153.738349,29.2307109 C153.15162,29.201308 152.645145,29.5551914 152.252723,30.5198077 C151.594585,32.9881664 153.764706,36.6186606 154.819776,35.2538065 C155.499236,34.339695 155.43562,32.1873412 155.435444,30.9321473 Z M171.103958,31.7581735 C171.040518,30.8610135 170.293282,30.065038 169.406863,30.056737 C168.820134,30.0273342 168.313659,30.3812176 167.921237,31.3458339 C167.263099,33.8141926 169.43322,37.4446868 170.48829,36.0798327 C171.239509,35.1783474 171.175893,33.0259936 171.103958,31.7581735 Z" id="Eyes" fill="#482D1F"></path>
                <path d="M163.972328,32.5800955 L164.050681,39.8522648 C164.050663,39.8767923 163.941188,39.9860628 163.90623,39.9860363 C163.507638,39.9857349 163.100078,39.9593031 162.464271,39.8974118 C162.340816,39.8853944 162.211709,39.8724048 162.025755,39.8533961 C161.791484,39.8293831 161.66318,39.8162493 161.54034,39.8038139 C161.119671,39.7612287 160.771228,39.7278194 160.398884,39.6952225 C159.99798,39.6601254 159.644596,39.9574156 159.609579,40.3592387 C159.574563,40.7610618 159.871173,41.1152557 160.272077,41.1503528 C160.637025,41.1823022 160.979252,41.2151155 161.393894,41.2570906 C161.515785,41.2694299 161.64311,41.2824636 161.877891,41.3065285 C162.065982,41.3257557 162.197116,41.3389491 162.323398,41.3512418 C163.001759,41.4172755 163.450259,41.4463623 163.905131,41.4467067 C164.744455,41.4473405 165.508602,40.6846182 165.507967,39.8438255 L165.429572,32.5643226 C165.425227,32.1609932 165.095489,31.8375609 164.693082,31.841873 C164.290675,31.846272 163.967983,32.176766 163.972328,32.5800955 Z" id="Nose" fill="#482D1F" transform="translate(162.557370, 36.644269) scale(-1, 1) rotate(-10.000000) translate(-162.557370, -36.644269) "></path>
                <path d="M152.800217,21.3353713 C157.703662,22.196167 161.187433,26.3732546 161.344176,31.1517601 L163.623297,31.3140501 C163.643146,31.1645067 163.666325,31.0146972 163.69289,30.8646994 C164.687995,25.2460629 170.056491,21.494437 175.682635,22.4820836 C179.6874,23.185117 182.745188,26.1002489 183.816892,29.7484485 L188.700205,29.0476258 C189.297858,28.9618333 189.851372,29.3777679 189.936512,29.9766417 C190.021651,30.5755156 189.606177,31.1305473 189.008524,31.2163398 L184.206187,31.9061361 C184.265387,32.7367609 184.224174,33.588114 184.072306,34.4456179 C183.077201,40.0642544 177.708705,43.8158803 172.082561,42.8282337 C167.348918,41.9972464 163.938326,38.0756694 163.566776,33.5059915 L161.182672,33.3365911 L161.136508,33.5782683 C160.015762,39.0412799 154.732518,42.6527073 149.200144,41.6815214 C143.572736,40.6936344 139.81516,35.3379034 140.810473,29.7179871 C141.805578,24.0993506 147.174074,20.3477247 152.800217,21.3353713 Z M165.845386,31.2459276 C165.061678,35.6710385 168.022371,39.8909591 172.461402,40.6702275 C176.901701,41.449704 181.135862,38.4907771 181.91981,34.0643897 C182.703518,29.6392788 179.742825,25.4193581 175.303794,24.6400898 C170.863495,23.8606133 166.629334,26.8195402 165.845386,31.2459276 Z M142.962969,30.0992153 C142.179261,34.5243262 145.139953,38.7442469 149.578984,39.5235152 C154.019284,40.3029917 158.253444,37.3440648 159.037393,32.9176774 C159.073854,32.7118036 159.10221,32.506374 159.12269,32.3017143 C159.112741,32.2337969 159.110883,32.163392 159.115996,32.0918691 C159.121244,32.0184641 159.133594,31.9472625 159.152323,31.8788914 C159.34626,27.8500835 156.511293,24.2113591 152.421377,23.4933775 C147.981078,22.713901 143.746917,25.6728279 142.962969,30.0992153 Z" id="Glasses" fill="#482D1F"></path>
                <path d="M161.622836,45.534955 C161.112724,45.3166211 159.873861,44.7344416 159.800735,44.0072541 C159.800682,43.8618218 159.72774,43.643647 159.873437,43.5709839 C160.237614,43.207536 161.112087,43.5714346 162.423732,43.9354923 C164.755521,44.5180694 166.64998,44.6641909 166.64998,44.6641909 C166.64998,44.6641909 165.921786,45.8273834 165.484721,46.1180888 C164.610672,46.9176478 162.351586,45.8988006 161.622836,45.534955 Z" id="Mouth" fill="#482D1F" transform="translate(163.216205, 44.918640) scale(-1, 1) rotate(-10.000000) translate(-163.216205, -44.918640) "></path>
                <path d="M210.951688,163.72158 C210.798005,157.290473 210.678697,151.664754 210.593762,146.844567 C210.508813,142.023577 210.389473,134.105301 210.235756,123.090465 C210.227313,122.485495 209.731166,122.001929 209.127579,122.010282 C208.523993,122.018853 208.041534,122.516138 208.049976,123.121109 C208.203728,134.138438 208.323101,142.058912 208.408109,146.883256 C208.493132,151.708404 208.612536,157.338619 208.766322,163.774043 C208.780776,164.378899 209.281704,164.857488 209.885176,164.843321 C210.488649,164.828513 210.966142,164.326436 210.951688,163.72158 Z" id="Shadow" fill="#482D1F"></path>
            </g>
            <g id="Group" transform="translate(0.000000, 21.974211)">
                <g id="Woman" fill-rule="nonzero">
                    <path d="M399.728367,649.531508 L399.736025,649.970202 C399.688334,651.653211 398.248819,652.994934 396.478492,653.025835 L273.746496,652.831995 C271.974897,652.789842 270.565283,651.424873 270.53593,649.743212 L270.528272,649.304518 C270.575963,647.621509 272.015478,646.279786 273.785804,646.248885 L396.440831,646.444072 C398.288126,646.411763 399.697738,647.776731 399.728367,649.531508 Z M3.3875897,590.32139 L3.5918285,590.329234 C4.17567686,590.329234 4.68654417,590.548614 5.19741148,590.914249 L5.19741148,590.914249 L76.66,646.267344 L115.768214,646.354832 C117.446523,646.325478 118.784182,647.691705 118.886446,649.372091 L118.894104,649.810785 C118.850414,651.493724 117.486913,652.834114 115.808603,652.863409 L73.0329405,652.733897 L73.159,652.295344 L72.9810443,652.332943 L1.18345404,596.106257 C-0.130204756,595.082481 -0.422128933,593.108055 0.672586732,591.864898 L0.672586732,591.864898 L0.891529865,591.499264 C1.54835926,590.694868 2.57009388,590.256107 3.5918285,590.329234 Z" id="Base" fill="#FF5645"></path>
                    <path d="M334.192624,600.657671 C340.93618,605.074284 345.322621,608.264398 347.351947,610.228011 C350.395936,613.173431 353.655013,615.895674 357.199601,618.247234 C365.764735,623.875335 370.215901,623.797484 383.242389,629.93266 C386.774241,631.553062 390.163974,633.395365 393.484558,635.45829 C396.805142,637.521216 397.940449,639.841777 398.877225,643.336018 C399.033355,643.918391 399.043544,644.503317 399.12543,645.013851 C399.145578,646.168132 399.005956,646.858067 398.775545,647.329661 C398.188447,646.765082 397.370006,646.427821 396.440831,646.444072 L396.440831,646.444072 L273.785804,646.248885 C273.590475,646.252294 273.399173,646.271662 273.213323,646.305684 L278.13809,600.818236 L334.192624,600.657671 Z M30.6773566,555.914247 L74.6119452,589.333233 L75.925604,593.720846 C81.0342771,611.661309 83.8075568,621.119053 84.2454431,622.094078 C84.7722681,623.235435 85.3185385,624.290505 85.8929258,625.317937 C89.8606607,626.935142 94.3665481,628.51759 101.250026,631.966207 C104.753117,633.648126 108.110245,635.549425 111.394392,637.670104 C114.678539,639.790784 115.773254,642.130844 116.649027,645.640935 C116.722654,645.936031 116.759141,646.231127 116.786591,646.516837 C116.4676,646.405623 116.125632,646.348581 115.768214,646.354832 L115.768214,646.354832 L76.66,646.267344 L5.19741148,590.914249 L5.19223205,590.911247 L30.6773566,555.914247 Z" id="Shoes" fill="#474961"></path>
                    <path d="M219.79847,236.497234 C220.493928,237.996469 221.139887,239.639431 221.736346,241.42612 C222.74036,241.434156 223.757938,241.531172 224.779632,241.723951 C227.726126,242.27991 230.473153,243.60531 232.742199,245.5655 C292.203085,296.927139 327.52025,339.601865 338.693694,373.589677 C344.958424,392.645973 350.520762,440.367144 355.380707,516.753191 C356.712812,537.697692 340.813773,555.756405 319.869268,557.088451 C319.393832,557.118688 318.917869,557.139982 318.441632,557.152317 L293.127889,557.808297 C272.467848,558.343681 255.167865,542.269374 254.186365,521.625716 L248.528964,402.634932 C238.445586,391.9537 229.659537,382.544886 222.170817,374.40849 C220.376146,384.22508 217.603725,394.587898 213.122676,408.452565 C205.65586,431.555392 175.235857,477.215764 121.862664,545.433679 C112.016486,558.5783 93.7057358,561.917633 79.8533723,553.094917 L57.6297031,538.940429 C39.9283168,527.66623 34.718052,504.176877 45.9922509,486.475491 C46.4484461,485.759229 46.928523,485.058459 47.4316731,484.374364 L117.42318,389.212183 C119.245259,348.008215 122.852526,311.960839 128.244982,281.070055 C136.333665,234.733879 196.882422,235.734636 219.79847,236.497234 Z" id="Legs" fill="#3ABF7C"></path>
                    <path d="M224.780534,241.720123 C227.727028,242.276083 230.474055,243.601482 232.743101,245.561672 C292.203987,296.923312 327.521152,339.598037 338.694596,373.585849 C344.959326,392.642145 350.521663,440.363317 355.381608,516.749363 C356.713714,537.693864 340.814674,555.752577 319.870169,557.084623 C319.394733,557.11486 318.918771,557.136154 318.442534,557.148489 L293.128791,557.804469 C272.468749,558.339853 255.168767,542.265546 254.187267,521.621888 L248.529866,402.631104 C238.452693,391.956445 229.671252,382.552637 222.185544,374.419683 C225.496419,356.293558 225.482745,340.004152 226.766993,306.924451 C227.936801,276.792516 226.248747,254.958654 221.702833,241.422864 C222.717916,241.428115 223.747119,241.525133 224.780534,241.720123 Z" id="Shadow-Legs" fill="#444444" opacity="0.176985679"></path>
                    <g id="Browser" transform="translate(261.308213, 0.000000)">
                        <path d="M12.6202544,49.5300574 L469.484889,49.4665276 L469.444736,338.79025 C469.437646,349.833774 460.485485,358.785938 449.441961,358.793031 L32.5773258,358.850998 C21.5316317,358.85809 12.5760816,349.90503 12.5745456,338.859336 C12.5745454,338.857483 12.5745454,338.855631 12.5801016,338.85378 L12.6202544,49.5300574 L12.6202544,49.5300574 Z" id="Background" fill="#2A71D3" transform="translate(241.031108, 204.160153) rotate(-4.000000) translate(-241.031108, -204.160153) "></path>
                        <path d="M0.696853408,33.9042136 C0.698912806,24.0081748 8.72674468,15.9841796 18.6096527,15.9821224 L439.641741,15.8944812 C449.532647,15.8924223 457.549142,23.9097212 457.547082,33.8091166 L457.543375,51.6227963 L0.693146323,51.7178933 L0.696853408,33.9042136 Z" id="Top-bar" fill="#E1E5F0" transform="translate(229.121979, 33.804323) rotate(-4.000000) translate(-229.121979, -33.804323) "></path>
                        <ellipse id="Burron" fill="#FF5645" transform="translate(24.955577, 48.498114) rotate(-4.000000) translate(-24.955577, -48.498114) " cx="24.9555772" cy="48.4981137" rx="7.66308417" ry="7.67824842"></ellipse>
                        <ellipse id="Burron" fill="#FFCB3D" transform="translate(50.436720, 46.712738) rotate(-4.000000) translate(-50.436720, -46.712738) " cx="50.4367204" cy="46.712738" rx="7.66308417" ry="7.67824842"></ellipse>
                        <ellipse id="Burron" fill="#3ABF7C" transform="translate(76.645896, 44.876351) rotate(-4.000000) translate(-76.645896, -44.876351) " cx="76.6458962" cy="44.8763515" rx="7.66308417" ry="7.67824842"></ellipse>
                    </g>
                    <path d="M163.956664,110.530284 C170.291809,109.45568 176.395027,109.538412 182.060855,110.561633 C189.133218,110.834403 197.840129,112.481133 205.759688,117.71326 C207.015549,118.531388 209.696413,120.286329 212.652323,123.180851 C212.652323,123.180851 212.652903,123.18141 212.654059,123.182535 L212.679914,123.208164 C212.684491,123.212758 212.689632,123.217942 212.695333,123.223724 L212.736229,123.265649 C213.473276,124.028624 218.9845,130.097222 226.030244,147.776522 C226.825442,149.817367 227.946989,153.07983 229.394886,157.563913 C230.243204,160.191806 228.800501,163.009793 226.172586,163.858043 L226.172586,163.858043 L225.896299,163.938528 C225.80347,163.962698 225.709947,163.984201 225.615846,164.003013 L225.615846,164.003013 L217.920823,165.535794 L220.349072,195.410397 C220.416881,196.215245 220.471993,196.948078 220.611674,197.740253 C221.200116,201.497754 221.222216,206.246176 218.804719,210.60796 C215.339108,217.01093 209.836186,226.149292 181.036473,230.930438 C154.249185,235.35674 146.455732,228.562888 141.178319,223.850059 C137.4021,220.506139 135.815571,215.291018 135.108781,211.702895 C134.969099,210.91072 134.770244,210.203234 134.558689,209.423731 L134.558689,209.423731 L126.928605,178.823693 L120.828734,179.953873 C120.510898,180.012791 120.18899,180.045833 119.866167,180.052807 L119.543155,180.051085 C116.231171,179.944214 113.632913,177.172683 113.739787,173.860699 C114.463727,151.435489 116.814525,136.73407 120.792181,129.756442 C121.955364,127.71598 123.444047,126.059602 125.163263,124.763867 C132.44716,117.736701 144.940694,113.791387 159.859943,111.252647 L159.859943,111.252647 Z" id="T-shirt" fill="#FF5645"></path>
                    <path d="M225.495066,106.726109 C211.934462,111.684246 202.089553,121.991368 198.534924,133.724133 C197.367227,137.526731 197.148284,141.621837 197.586171,145.570689 L197.586171,145.570689 L199.605227,167.127109 L191.802451,166.988972 C191.673306,166.986697 191.544323,166.979414 191.41579,166.967148 L191.223366,166.945015 C188.486656,166.576392 186.566943,164.059023 186.935562,161.322313 C187.56853,156.622857 188.099698,153.19756 188.529068,151.046423 C192.688987,131.009656 197.432755,124.501364 197.432755,124.501364 C199.84113,121.137527 202.176523,118.94372 203.271239,117.919944 C210.258498,111.300607 218.521865,108.199778 225.45501,106.735636 Z" id="Shadow-T-shirt" fill="#444444" opacity="0.176985679" transform="translate(206.192647, 136.926677) scale(-1, 1) rotate(10.000000) translate(-206.192647, -136.926677) "></path>
                    <path d="M338.445619,551.071061 L333.375618,601.033535 L278.13809,601.033535 L280.923523,556.172575 C284.829399,557.401648 289.000303,558.015189 293.317957,557.903302 L293.317957,557.903302 L318.6317,557.247321 C319.107937,557.234986 319.5839,557.213692 320.059336,557.183455 C326.858835,556.751015 333.126575,554.555693 338.445619,551.071061 Z M47.6500998,529.554854 C50.3491541,533.213793 53.7551603,536.44664 57.8197713,539.035434 L57.8197713,539.035434 L80.0434405,553.189922 C83.9617663,555.685545 88.2368151,557.208062 92.5761097,557.810812 L74.6119452,589.333233 L30.6773566,555.914247 Z M269.934729,148.608753 C269.934729,148.608753 269.782431,148.798348 269.498019,149.149523 L269.260254,149.442762 C265.331675,154.282666 245.321171,178.686074 237.969047,182.763859 L227.863136,161.843773 C227.427762,162.259579 226.910746,162.602192 226.325223,162.844228 L226.070128,162.94172 L225.809539,163.025438 L225.54486,163.094747 L225.54486,163.094747 L225.276685,163.149493 L217.643741,164.495017 L220.13115,195.095373 C220.19896,195.900221 220.254071,196.633054 220.393753,197.425229 C220.982195,201.18273 221.004294,205.931152 218.586798,210.292936 C217.823272,211.703606 216.960857,213.247048 215.77221,214.847416 L179.617589,210.819467 L167.83615,170.875162 L166.903711,170.897899 C166.4175,171.17362 165.88536,171.384901 165.316637,171.518181 L165.029269,171.578259 L120.886776,179.698536 C120.46673,179.775988 120.039593,179.808073 119.612681,179.794534 C119.236312,179.782598 118.869141,179.736247 118.514091,179.658598 L118.446808,179.642969 C130.925494,225.544376 142.296549,249.47343 152.559972,251.430134 C195.073413,259.535245 235.708417,261.278649 274.464984,256.660346 L274.529632,256.194553 C275.643444,256.449762 276.906578,256.538675 278.319032,256.461292 C290.60683,255.788089 309.003275,250.085444 333.508369,239.353357 C333.528282,239.342082 333.721153,238.879134 334.009111,238.050612 L334.138117,237.6734 C336.01934,232.086114 340.923226,213.780979 332.029579,201.355552 L312.826795,207.917364 C313.244596,207.270635 313.423112,206.893808 313.423112,206.893808 C310.718139,196.471718 268.968343,218.167937 264.881993,220.319918 L254.258699,219.134758 L273.730764,199.061032 C273.072785,190.31597 272.500343,182.707766 272.013438,176.236421 L271.848311,174.041747 C271.830343,173.802939 271.812501,173.565813 271.794787,173.330369 L271.638769,171.256781 C270.502743,156.158095 269.934729,148.608753 269.934729,148.608753 Z M167.099312,42.6030368 C166.817344,42.6786424 166.55429,42.8248854 166.272321,42.900491 C163.76385,44.2544805 161.234721,44.4026666 158.678092,45.0124798 C157.550219,45.3149022 156.879706,46.478906 157.111839,47.6280051 C159.849243,58.6036529 161.345761,64.6628761 161.601392,65.8056747 C161.82167,66.7904267 160.126805,66.6641422 158.276478,66.4483174 L157.863451,66.3992976 C157.794425,66.3910204 157.725364,66.3827242 157.656359,66.3744608 L157.2437,66.32569 C156.217279,66.206825 155.243451,66.1187087 154.623947,66.2364948 C151.164671,66.8612127 148.32487,72.0910971 147.982805,75.8925527 C147.575411,80.0143605 149.724647,83.5263552 152.571895,85.4127191 C152.729978,85.5136097 152.888403,85.6087596 153.046811,85.6984879 L155.779428,111.627858 C153.261293,112.178892 150.6156,112.843688 147.836727,113.635339 C137.213239,116.661782 129.739045,120.274801 125.414143,124.474395 C133.204812,118.583339 145.752797,120.121699 154.185034,126.895603 C183.39517,121.562133 198.953572,118.720999 200.862155,118.372471 L200.990251,118.349079 L201.062306,118.335921 C198.793262,115.81996 192.060004,110.049327 177.250146,109.437548 L176.408539,102.485586 C176.736912,102.523011 177.074556,102.560471 177.421714,102.59791 C182.608945,103.241099 183.441686,103.302726 183.790144,103.314025 L183.833167,103.315257 L183.833167,103.315257 L183.87342,103.316199 L183.911967,103.317097 C183.950339,103.318066 183.989203,103.31939 184.037706,103.322323 C188.800246,103.33237 192.587904,102.241057 193.27391,101.981406 C199.081759,99.9698638 203.096123,87.3100112 202.017755,70.8674943 C201.959269,69.5204163 201.689307,68.2300425 201.489837,66.9207674 L198.668148,54.1254698 C198.052567,51.2621728 196.732066,48.5878899 194.730723,46.4747091 C193.883075,45.56636 193.054341,44.7286483 192.211857,44.12175 C182.341026,36.3206395 169.420386,41.6778397 167.099312,42.6030368 Z" id="Skin" fill="#F2A98A"></path>
                    <path d="M211.53963,153.710275 C211.53963,153.710275 240.118955,178.752204 248.950654,181.795705 L255.208389,160.0858 C255.741063,160.472393 256.357454,160.758565 257.034248,160.911774 L257.327932,160.969199 L257.599099,161.006394 L257.871793,161.028689 L257.871793,161.028689 L258.1454,161.036035 L265.89603,161.035671 L268.760107,191.603073 C268.833088,192.407469 268.906069,193.138738 268.906069,193.943133 C268.97905,197.745731 269.781841,202.425852 272.920026,206.301577 C273.858557,207.484669 274.903842,208.768436 276.231719,210.057605 L239.84163,220.738275 L216.580926,204.156415 C216.20576,200.402283 215.851533,196.857685 215.518246,193.522619 L215.353348,191.872548 C214.564771,183.981596 213.898488,177.314376 213.354497,171.870885 L213.235522,170.680356 C213.216029,170.485298 213.196704,170.291921 213.177547,170.100226 L213.064622,168.970232 C213.046138,168.785263 213.027821,168.601975 213.009672,168.420369 L212.902797,167.350911 C211.994019,158.257154 211.53963,153.710275 211.53963,153.710275 Z" id="Shadow-Skin" fill="#8C2A00" opacity="0.2" transform="translate(243.885675, 187.224275) scale(-1, 1) rotate(10.000000) translate(-243.885675, -187.224275) "></path>
                    <path d="M309.979337,219.718969 C313.596602,218.681455 316.391834,217.782562 322.611422,215.706789 C328.860367,213.621217 331.676192,212.715702 335.333327,211.666752 C335.915591,211.499746 336.523166,211.835414 336.690383,212.416489 C336.8576,212.997563 336.521138,213.604003 335.938873,213.771009 C332.321608,214.808523 329.526376,215.707416 323.306788,217.78319 C317.057844,219.868762 314.242018,220.774277 310.584884,221.823226 C310.002619,221.990233 309.395045,221.654564 309.227828,221.07349 C309.060611,220.492415 309.397073,219.885976 309.979337,219.718969 Z M308.067782,234.773908 C312.005619,233.375769 315.075246,232.363288 321.918129,230.165696 C328.740124,227.974811 331.795045,226.967181 335.705152,225.578888 C336.275946,225.376226 336.903187,225.673704 337.106132,226.243324 C337.309078,226.812944 337.010878,227.439002 336.440083,227.641664 C332.502247,229.039803 329.432619,230.052284 322.589736,232.249876 C315.767741,234.440761 312.71282,235.448391 308.802713,236.836684 C308.231919,237.039346 307.604679,236.741868 307.401733,236.172248 C307.198787,235.602628 307.496988,234.97657 308.067782,234.773908 Z" id="Fingers" fill="#482D1F"></path>
                    <path d="M192.279061,44.282461 C192.316914,44.4237313 193.728722,45.1810364 193.715008,45.4118307 C193.715008,45.4118307 193.665064,45.5197714 193.564849,45.7217497 L193.46663,45.9175794 C191.833544,49.1412003 182.124687,66.8059075 163.671755,70.6841868 C163.126,70.0954118 161.685143,68.7057398 159.525145,67.8248478 C159.275884,67.7403574 157.512171,67.0782894 155.571048,67.4480382 C152.111767,68.0739758 149.304831,71.7044429 148.961489,75.5062445 C148.514937,79.4871696 150.643956,82.9280063 153.419895,84.8324375 C156.195835,86.7368687 159.185606,86.6155198 160.158698,86.5813791 L161.30973,86.2482108 C162.296467,88.1400422 162.983639,90.1778312 162.188167,91.7319134 C160.650636,94.7357272 157.786206,96.4685897 153.594879,96.9305009 C149.719646,101.848971 143.380321,105.282016 136.02457,105.797408 C123.359008,106.68484 112.476137,98.5859734 111.716998,87.708083 C110.990148,77.2928694 119.807681,68.1062841 131.676269,66.5647043 C131.613725,63.7367177 132.065215,60.646857 133.515631,57.6054658 C134.897533,54.585458 136.902092,52.7613273 137.756525,52.0024369 C142.465372,47.8638572 147.003067,48.162116 157.661417,45.0791002 C159.898307,44.4040207 163.192612,43.445608 167.026731,41.9640196 C167.327635,41.9590992 167.590686,41.8129086 167.872663,41.737353 C170.193762,40.8125904 182.923874,36.7202082 192.279061,44.282461 Z M185.276449,64.6405113 C186.775717,64.3136872 188.02202,64.7361392 188.80758,65.1308807 C189.503756,65.4739137 189.448446,66.397242 188.781281,66.7277786 C187.428062,67.3182167 185.228912,68.1357743 182.995689,67.9782951 C179.648385,67.8928099 182.348406,65.2752329 185.276449,64.6405113 Z M202.45717,63.0560123 C203.124335,62.7254757 203.179646,61.8021474 202.553964,61.4401878 C201.768404,61.0454463 200.522101,60.6229943 199.093327,60.9308917 C196.165284,61.5656133 193.446374,64.1125552 196.812567,64.2686755 C198.975295,64.4450813 201.174446,63.6275237 202.45717,63.0560123 Z" id="Hair" fill="#482D1F"></path>
                    <path d="M198.624544,69.9144159 C198.538866,69.0289409 199.073808,68.2039583 199.91974,67.9768385 C200.483694,67.8254257 201.052709,67.9754799 201.528637,68.907592 C202.626541,71.0354303 201.310107,74.8713725 200.053681,73.8459861 C199.122072,73.1876306 198.804666,71.1530667 198.624544,69.9144159 Z M185.963229,72.8595453 C185.877551,71.9740703 186.412494,71.1490877 187.258425,70.9219679 C187.82238,70.770555 188.391395,70.9206092 188.867322,71.8527214 C189.965226,73.9805596 188.648793,77.8165019 187.392367,76.7911155 C186.460758,76.13276 186.072857,74.1171227 185.963229,72.8595453 Z" id="Eyes" fill="#482D1F"></path>
                    <path d="M195.853255,85.8458314 C196.364118,85.6998524 197.604743,85.2617696 197.823314,84.4575907 C197.823241,84.3113564 197.896123,84.0920416 197.823059,83.9457709 C197.530877,83.5069223 196.582106,83.7257997 195.268344,83.8713776 C192.932747,84.0895623 191.034877,83.869263 191.034877,83.869263 C191.034877,83.869263 191.619533,85.3318969 191.984669,85.6976648 C192.71516,86.8679033 195.050465,86.0647817 195.853255,85.8458314 Z" id="Mouth" fill="#482D1F" transform="translate(194.445229, 85.002321) scale(-1, 1) rotate(15.000000) translate(-194.445229, -85.002321) "></path>
                    <path d="M191.820289,71.8689435 L190.950447,79.6405334 L190.9459,79.7220339 C190.9459,80.5201067 191.490959,81.2613076 192.285541,81.3940026 C192.431342,81.4081028 192.512764,81.4138943 192.594319,81.4192104 C193.366194,81.4695241 193.920291,81.4770792 195.908611,81.4770792 C196.311674,81.4770792 196.638422,81.149679 196.638422,80.7458103 C196.638422,80.3419417 196.311674,80.0145415 195.908611,80.0145415 C193.955448,80.0145415 193.416866,80.007198 192.689073,79.9597576 C192.613252,79.9548154 192.537562,79.9494316 192.461495,79.9435686 C192.477905,79.9436486 192.416811,79.8587801 192.40687,79.750863 L193.276747,71.9789578 L193.280875,71.8726827 L193.134913,67.5581965 C193.121257,67.1545597 192.783628,66.8384394 192.380796,66.852122 C191.977964,66.8658046 191.662474,67.2041088 191.67613,67.6077456 L191.820289,71.8689435 Z" id="Nose" fill="#482D1F" transform="translate(193.792161, 74.164387) scale(-1, 1) rotate(15.000000) translate(-193.792161, -74.164387) "></path>
                    <path d="M168.916565,170.524996 C167.142212,163.680635 165.247623,156.565793 163.232794,149.18045 C163.073371,148.596087 162.471358,148.251864 161.888161,148.411605 C161.304963,148.571346 160.961426,149.174562 161.120849,149.758925 C163.133281,157.135482 165.025486,164.241367 166.797461,171.076557 C166.949467,171.6629 167.547069,172.014755 168.132244,171.862446 C168.717418,171.710136 169.068571,171.11134 168.916565,170.524996 Z" id="Shadow" fill="#482D1F"></path>
                </g>
                <g id="Group-8" transform="translate(289.270315, 35.874688)">
                    <g id="Group-4" transform="translate(218.044746, 157.015823) scale(-1, 1) rotate(-165.000000) translate(-218.044746, -157.015823) translate(21.772945, 47.051952)" fill-rule="nonzero">
                        <ellipse id="Oval" fill="#E1E5F0" cx="148.398139" cy="159.48543" rx="33.0431186" ry="33.1086212"></ellipse>
                        <path d="M22.7138588,154.570465 L60.5075289,211.435766 L-2.84217094e-14,219.927743 L22.7138588,154.570465 Z M93.3266521,131.686866 L93.3266521,209.513625 L73.0219293,209.513625 L30.2443347,145.340865 L93.3266521,131.686866 Z M232.93255,159.084086 L241.748728,187.23425 L196.68993,192.50468 L198.53985,164.00009 L232.93255,159.084086 Z M302.150101,105.052929 L314.862862,181.560754 L262.733151,186.749527 L249.205756,112.848092 L302.150101,105.052929 Z M148.639533,132.547793 C163.570705,132.547793 175.674812,144.675894 175.674812,159.636665 C175.674812,174.597436 163.570705,186.725537 148.639533,186.725537 C133.708361,186.725537 121.604254,174.597436 121.604254,159.636665 C121.604254,144.675894 133.708361,132.547793 148.639533,132.547793 Z M370.111632,92.9680879 L392.543602,141.437935 L325.787745,179.766915 L311.392581,104.475461 L370.111632,92.9680879 Z M233.174127,112.993204 L233.174127,148.945976 L195.334535,154.701467 L188.973592,122.970081 L233.174127,112.993204 Z M81.9752901,4.54747351e-13 L122.246165,15.5553442 L99.4400675,112.328492 L33.845094,122.974879 L81.9752901,4.54747351e-13 Z M137.396886,22.0951107 L165.693422,33.5440897 L146.378725,105.289137 L108.645082,112.821332 L137.396886,22.0951107 Z M183.241707,37.1410729 L222.922217,53.1383943 L226.753944,94.4056212 L166.790902,102.365544 L183.241707,37.1410729 Z M336.934562,35.771499 L358.807101,70.0345572 L238.055857,92.6961532 L233.500729,61.1250762 L288.52553,52.3550059 L336.934562,35.771499 Z M273.004559,19.2544444 L281.001077,44.7181527 L232.581223,53.2664301 L232.413429,28.6143368 L273.004559,19.2544444 Z M317.994178,5.63758655 L328.343552,30.2270272 L289.390502,42.4657567 L282.706936,17.4729008 L317.994178,5.63758655 Z M330.236518,3.6314351 L351.671771,3.93403187 C354.717645,3.9770298 357.38604,5.98486687 358.271033,8.89965353 C359.370805,12.5218279 357.391506,16.3454356 353.835735,17.5576056 L353.606644,17.6314045 L336.710241,22.7615231 L330.236518,3.6314351 Z" id="Combined-Shape" fill="#F2F6FB"></path>
                    </g>
                    <path d="M212.009277,220.550941 L206.28445,210.45752 C205.40619,208.909063 203.441431,208.367173 201.896039,209.247174 C200.350646,210.127174 199.809827,212.095828 200.688087,213.644284 L206.412915,223.737706 C207.291174,225.286162 209.255933,225.828052 210.801326,224.948052 C212.346718,224.068051 212.887537,222.099398 212.009277,220.550941 Z M200.559622,200.364098 L194.834795,190.270676 C193.956535,188.72222 191.991776,188.18033 190.446384,189.06033 C188.900991,189.940331 188.360172,191.908985 189.238432,193.457441 L194.96326,203.550862 C195.841519,205.099319 197.806278,205.641209 199.351671,204.761208 C200.897064,203.881208 201.437882,201.912554 200.559622,200.364098 Z M189.070025,180.178838 L183.287506,170.118488 C182.400395,168.575106 180.432567,168.044517 178.892237,168.933386 C177.351908,169.822255 176.82237,171.793985 177.70948,173.337368 L183.492,183.397717 C184.37911,184.9411 186.346939,185.471688 187.887268,184.582819 C189.427597,183.69395 189.957136,181.722221 189.070025,180.178838 Z M175.723457,165.230827 L187.25292,164.079825 C189.021683,163.903247 190.312688,162.323395 190.136459,160.551125 C189.960231,158.778856 188.383503,157.485292 186.61474,157.66187 L175.085277,158.812872 C173.316514,158.98945 172.025509,160.569303 172.201738,162.341572 C172.377967,164.113841 173.954694,165.407405 175.723457,165.230827 Z M198.782384,162.928824 L210.311847,161.777822 C212.080611,161.601244 213.371615,160.021392 213.195386,158.249122 C213.019158,156.476853 211.44243,155.183289 209.673667,155.359867 L198.144204,156.510869 C196.375441,156.687447 195.084437,158.2673 195.260665,160.039569 C195.436894,161.811838 197.013621,163.105402 198.782384,162.928824 Z M221.841311,160.626821 L233.370775,159.475819 C235.139538,159.299241 236.430542,157.719389 236.254313,155.947119 C236.078085,154.17485 234.501357,152.881286 232.732594,153.057864 L221.203131,154.208866 C219.434368,154.385444 218.143364,155.965297 218.319592,157.737566 C218.495821,159.509835 220.072548,160.803399 221.841311,160.626821 Z M244.900238,158.324818 L256.429702,157.173816 C258.198465,156.997238 259.489469,155.417386 259.31324,153.645116 C259.137012,151.872847 257.560284,150.579283 255.791521,150.755861 L244.262058,151.906863 C242.493295,152.083441 241.202291,153.663294 241.378519,155.435563 C241.554748,157.207832 243.131475,158.501396 244.900238,158.324818 Z M267.959165,156.022815 L279.488629,154.871813 C281.257392,154.695235 282.548396,153.115382 282.372167,151.343113 C282.195939,149.570844 280.619211,148.27728 278.850448,148.453858 L267.320985,149.60486 C265.552222,149.781438 264.261218,151.361291 264.437446,153.13356 C264.613675,154.905829 266.190402,156.199393 267.959165,156.022815 Z M291.018092,153.720812 L302.547556,152.56981 C304.316319,152.393232 305.607323,150.813379 305.431094,149.04111 C305.254866,147.268841 303.678139,145.975277 301.909375,146.151855 L290.379912,147.302857 C288.611149,147.479435 287.320145,149.059288 287.496373,150.831557 C287.672602,152.603826 289.249329,153.89739 291.018092,153.720812 Z M314.077019,151.418809 L325.606483,150.267807 C327.375246,150.091229 328.66625,148.511376 328.490021,146.739107 C328.313793,144.966838 326.737066,143.673274 324.968303,143.849852 L313.438839,145.000854 C311.670076,145.177432 310.379072,146.757285 310.5553,148.529554 C310.731529,150.301823 312.308256,151.595387 314.077019,151.418809 Z M337.073409,149.336902 L348.628214,148.478121 C350.400864,148.346374 351.73129,146.799705 351.599803,145.023541 C351.468316,143.247376 349.924708,141.914313 348.152057,142.04606 L336.597253,142.904841 C334.824602,143.036588 333.494176,144.583257 333.625663,146.359421 C333.75715,148.135586 335.300759,149.468649 337.073409,149.336902 Z M360.183018,147.619341 L371.737823,146.76056 C373.510473,146.628813 374.840899,145.082144 374.709413,143.305979 C374.577926,141.529815 373.034317,140.196751 371.261666,140.328499 L359.706862,141.18728 C357.934211,141.319027 356.603785,142.865696 356.735272,144.64186 C356.866759,146.418025 358.410368,147.751088 360.183018,147.619341 Z M383.292627,145.90178 L386.843047,145.637904 L386.765693,145.642716 L394.782053,145.241103 C396.557356,145.152162 397.924564,143.638041 397.835799,141.859219 C397.747034,140.080397 396.235909,138.710478 394.460606,138.799419 L386.444246,139.201031 L386.366891,139.205843 L382.816471,139.469718 C381.04382,139.601466 379.713394,141.148135 379.844881,142.924299 C379.976368,144.700464 381.519977,146.033527 383.292627,145.90178 Z M401.039716,132.51479 L403.1242,121.094696 C403.443986,119.342711 402.28577,117.662696 400.537251,117.342276 C398.788733,117.021856 397.112041,118.182369 396.792256,119.934353 L394.707771,131.354447 C394.387985,133.106432 395.546202,134.786447 397.29472,135.106867 C399.043238,135.427287 400.71993,134.266774 401.039716,132.51479 Z M405.208685,109.674601 L407.293169,98.2545069 C407.612955,96.5025225 406.454739,94.822507 404.70622,94.5020872 C402.957702,94.1816675 401.28101,95.3421799 400.961225,97.0941643 L398.87674,108.514259 C398.556954,110.266243 399.715171,111.946259 401.463689,112.266678 C403.212207,112.587098 404.888899,111.426586 405.208685,109.674601 Z M206.575961,248.373231 C211.553018,248.373231 215.58772,244.330531 215.58772,239.343607 C215.58772,234.356684 211.553018,230.313983 206.575961,230.313983 C201.598903,230.313983 197.564201,234.356684 197.564201,239.343607 C197.564201,244.330531 201.598903,248.373231 206.575961,248.373231 Z M399.255964,87.5599281 C404.233022,87.5599281 408.267724,83.5172277 408.267724,78.5303041 C408.267724,73.5433805 404.233022,69.5006802 399.255964,69.5006802 C394.278907,69.5006802 390.244205,73.5433805 390.244205,78.5303041 C390.244205,83.5172277 394.278907,87.5599281 399.255964,87.5599281 Z" id="Combined-Shape" fill="#D8DEED" fill-rule="nonzero"></path>
                    <g id="Group-5" transform="translate(136.627541, 57.031199)">
                        <path d="M29.9042764,61.3509713 C40.5794661,42.6681085 45.917061,29.8201722 45.917061,22.8071625 C45.917061,10.2111145 35.6381768,0 22.9585305,0 C10.2788842,0 0,10.2111145 0,22.8071625 C0,29.8201722 5.33759487,42.6681085 16.0127846,61.3509713 L16.012546,61.3511077 C18.2045877,65.187269 23.0914118,66.5200913 26.9275731,64.3280495 C28.1678771,63.6193207 29.1957862,62.5914117 29.904515,61.3511077 Z" id="Pin" fill="#474BFF" fill-rule="nonzero"></path>
                        <ellipse id="Oval" fill="#FFFFFF" cx="23.1730962" cy="25.1539525" rx="13.3030737" ry="13.5444359"></ellipse>
                    </g>
                </g>
            </g>
        </g>
    </g>
</svg>